<?xml version="1.0" encoding="UTF-8" standalone="no"?>
<svg
   height="24"
   viewBox="0 0 24 24"
   width="24"
   version="1.1"
   id="svg8"
   sodipodi:docname="chat-3-fill-contact.svg"
   inkscape:version="1.1.2 (0a00cf5339, 2022-02-04)"
   xmlns:inkscape="http://www.inkscape.org/namespaces/inkscape"
   xmlns:sodipodi="http://sodipodi.sourceforge.net/DTD/sodipodi-0.dtd"
   xmlns="http://www.w3.org/2000/svg"
   xmlns:svg="http://www.w3.org/2000/svg">
  <defs
     id="defs12" />
  <sodipodi:namedview
     id="namedview10"
     pagecolor="#ffffff"
     bordercolor="#666666"
     borderopacity="1.0"
     inkscape:pageshadow="2"
     inkscape:pageopacity="0.0"
     inkscape:pagecheckerboard="0"
     showgrid="false"
     inkscape:zoom="19.916667"
     inkscape:cx="0.32635983"
     inkscape:cy="12"
     inkscape:window-width="1366"
     inkscape:window-height="726"
     inkscape:window-x="0"
     inkscape:window-y="42"
     inkscape:window-maximized="1"
     inkscape:current-layer="g6" />
  <g
     fill="none"
     id="g6">
    <path
       d="m0 0h24v24h-24z"
       id="path2" />
    <path
       d="m2 11.5c0-4.85739 4.65561-8.5 10-8.5 5.3444 0 10 3.64261 10 8.5 0 4.8574-4.6556 8.5-10 8.5-.6528 0-1.292-.0531-1.9114-.1548-.09263.0728-.25289.2049-.45009.3439-.56721.3996-1.38934.8109-2.63851.8109-.55228 0-1-.4477-1-1 0-.5501.14332-1.2337-.09376-1.7562-2.32923-1.5213-3.90624-3.946-3.90624-6.7438z"
       fill="#09244b"
       id="path4"
       style="fill:#23282b;fill-opacity:1" />
  </g>
</svg>
