<?xml version="1.0" encoding="UTF-8" standalone="no"?>
<svg
   height="11.94"
   viewBox="0 0 8.6400003 11.94"
   width="8.6400003"
   version="1.1"
   id="svg1"
   sodipodi:docname="hourglass.svg"
   inkscape:version="1.3.2 (1:1.3.2+202404261509+091e20ef0f)"
   xmlns:inkscape="http://www.inkscape.org/namespaces/inkscape"
   xmlns:sodipodi="http://sodipodi.sourceforge.net/DTD/sodipodi-0.dtd"
   xmlns="http://www.w3.org/2000/svg"
   xmlns:svg="http://www.w3.org/2000/svg">
  <defs
     id="defs1" />
  <sodipodi:namedview
     id="namedview1"
     pagecolor="#ffffff"
     bordercolor="#000000"
     borderopacity="0.25"
     inkscape:showpageshadow="2"
     inkscape:pageopacity="0.0"
     inkscape:pagecheckerboard="0"
     inkscape:deskcolor="#d1d1d1"
     inkscape:zoom="19.067323"
     inkscape:cx="2.4125044"
     inkscape:cy="7.1063989"
     inkscape:window-width="1314"
     inkscape:window-height="699"
     inkscape:window-x="52"
     inkscape:window-y="32"
     inkscape:window-maximized="1"
     inkscape:current-layer="svg1" />
  <path
     d="m 1.08,0.8955 c -0.35787744,0 -0.648,0.2839912 -0.648,0.6343125 0,0.3503181 0.29012256,0.6343125 0.648,0.6343125 v 0.7431415 c 0,0.5046907 0.2048134,0.9887092 0.5693846,1.3455797 L 3.4035919,5.97 1.6493846,7.6871479 C 1.2848134,8.0440119 1.08,8.5280555 1.08,9.0327149 V 9.775875 c -0.35787744,0 -0.648,0.283982 -0.648,0.634312 0,0.350331 0.29012256,0.634313 0.648,0.634313 h 6.48 c 0.3578904,0 0.648,-0.283982 0.648,-0.634313 0,-0.35033 -0.2901096,-0.634312 -0.648,-0.634312 V 9.0327149 C 7.56,8.5280555 7.3551672,8.0440119 6.9906024,7.6871479 L 5.2364081,5.97 6.9906024,4.2528462 C 7.3551672,3.8959757 7.56,3.4119572 7.56,2.9072665 V 2.164125 c 0.3578904,0 0.648,-0.2839944 0.648,-0.6343125 C 8.208,1.1794912 7.9178904,0.8955 7.56,0.8955 Z M 6.264,2.164125 H 2.376 v 0.7431415 c 0,0.1682323 0.068273,0.3295697 0.1897927,0.4485287 l 0.078615,0.076955 H 5.995598 L 6.0742,3.3557952 C 6.1957008,3.2368362 6.264,3.0754988 6.264,2.9072665 Z M 4.32,6.8670512 2.5657927,8.5841929 C 2.4442733,8.7031895 2.376,8.8644948 2.376,9.0327149 V 9.775875 H 6.264 V 9.0327149 c 0,-0.1682201 -0.068301,-0.3295254 -0.1897992,-0.448522 z"
     fill-rule="evenodd"
     id="path1"
     style="fill:#ffffff;stroke-width:0.64112" />
</svg>
