<?xml version="1.0" encoding="UTF-8" standalone="no"?>
<!-- Uploaded to: SVG Repo, www.svgrepo.com, Generator: SVG Repo Mixer Tools -->

<svg
   width="800px"
   height="800px"
   viewBox="0 0 32 32"
   version="1.1"
   id="svg11"
   sodipodi:docname="plus-square-svgrepo-com.svg"
   inkscape:version="1.1.2 (0a00cf5339, 2022-02-04)"
   xmlns:inkscape="http://www.inkscape.org/namespaces/inkscape"
   xmlns:sodipodi="http://sodipodi.sourceforge.net/DTD/sodipodi-0.dtd"
   xmlns="http://www.w3.org/2000/svg"
   xmlns:svg="http://www.w3.org/2000/svg"
   xmlns:rdf="http://www.w3.org/1999/02/22-rdf-syntax-ns#"
   xmlns:cc="http://creativecommons.org/ns#"
   xmlns:dc="http://purl.org/dc/elements/1.1/"
   xmlns:sketch="http://www.bohemiancoding.com/sketch/ns">
  <sodipodi:namedview
     id="namedview13"
     pagecolor="#ffffff"
     bordercolor="#666666"
     borderopacity="1.0"
     inkscape:pageshadow="2"
     inkscape:pageopacity="0.0"
     inkscape:pagecheckerboard="0"
     showgrid="false"
     inkscape:zoom="0.5975"
     inkscape:cx="10.878661"
     inkscape:cy="400"
     inkscape:window-width="1346"
     inkscape:window-height="706"
     inkscape:window-x="10"
     inkscape:window-y="52"
     inkscape:window-maximized="0"
     inkscape:current-layer="Page-1" />
  <title
     id="title2">plus-square</title>
  <desc
     id="desc4">Created with Sketch Beta.</desc>
  <defs
     id="defs6" />
  <g
     id="Page-1"
     stroke="none"
     stroke-width="1"
     fill="none"
     fill-rule="evenodd"
     sketch:type="MSPage">
    <g
       id="Icon-Set-Filled"
       sketch:type="MSLayerGroup"
       transform="matrix(-1,0,0,1,134,-1037)"
       fill="#000000"
       style="fill:#2b2f33;fill-opacity:1">
      <path
         d="m 124,1054 h -5 v 5 c 0,0.55 -0.448,1 -1,1 -0.552,0 -1,-0.45 -1,-1 v -5 h -5 c -0.552,0 -1,-0.45 -1,-1 0,-0.55 0.448,-1 1,-1 h 5 v -5 c 0,-0.55 0.448,-1 1,-1 0.552,0 1,0.45 1,1 v 5 h 5 c 0.552,0 1,0.45 1,1 0,0.55 -0.448,1 -1,1 z m 6,-17 h -24 c -2.209,0 -4,1.79 -4,4 v 24 c 0,2.21 1.791,4 4,4 h 24 c 2.209,0 4,-1.79 4,-4 v -24 c 0,-2.21 -1.791,-4 -4,-4 z"
         id="plus-square"
         sketch:type="MSShapeGroup"
         style="fill:#2b2f33;fill-opacity:1" />
    </g>
  </g>
  <metadata
     id="metadata934">
    <rdf:RDF>
      <cc:Work
         rdf:about="">
        <dc:title>plus-square</dc:title>
      </cc:Work>
    </rdf:RDF>
  </metadata>
</svg>
