<?xml version="1.0" encoding="UTF-8" standalone="no"?>
<svg
   height="16"
   viewBox="0 0 16 16"
   width="16"
   version="1.1"
   id="svg4"
   sodipodi:docname="signlas.svg"
   inkscape:version="1.1.2 (0a00cf5339, 2022-02-04)"
   xmlns:inkscape="http://www.inkscape.org/namespaces/inkscape"
   xmlns:sodipodi="http://sodipodi.sourceforge.net/DTD/sodipodi-0.dtd"
   xmlns="http://www.w3.org/2000/svg"
   xmlns:svg="http://www.w3.org/2000/svg">
  <defs
     id="defs8" />
  <sodipodi:namedview
     id="namedview6"
     pagecolor="#ffffff"
     bordercolor="#666666"
     borderopacity="1.0"
     inkscape:pageshadow="2"
     inkscape:pageopacity="0.0"
     inkscape:pagecheckerboard="0"
     showgrid="false"
     inkscape:zoom="29.875"
     inkscape:cx="-7.5481172"
     inkscape:cy="8"
     inkscape:window-width="1366"
     inkscape:window-height="726"
     inkscape:window-x="0"
     inkscape:window-y="42"
     inkscape:window-maximized="1"
     inkscape:current-layer="svg4" />
  <path
     d="M4 2a1 1 0 0 0 0 2 8 8 0 0 1 8 8 1 1 0 0 0 2 0A10 10 0 0 0 4 2zm0 4a1 1 0 0 0 0 2 4 4 0 0 1 4 4 1 1 0 0 0 2 0 6 6 0 0 0-6-6zm0 4a2 2 0 0 0 0 4 2 2 0 0 0 0-4z"
     fill="#e0e0e0"
     id="path2"
     style="fill:#8da5f3;stroke:white;stroke-width:1;fill-opacity:1" />
</svg>
