<?xml version="1.0" encoding="UTF-8" standalone="no"?>
<svg
   viewBox="0 0 14 14"
   version="1.1"
   id="svg4"
   sodipodi:docname="legal-license-mit-light.svg"
   inkscape:version="1.1.2 (0a00cf5339, 2022-02-04)"
   xmlns:inkscape="http://www.inkscape.org/namespaces/inkscape"
   xmlns:sodipodi="http://sodipodi.sourceforge.net/DTD/sodipodi-0.dtd"
   xmlns="http://www.w3.org/2000/svg"
   xmlns:svg="http://www.w3.org/2000/svg">
  <defs
     id="defs8" />
  <sodipodi:namedview
     id="namedview6"
     pagecolor="#ffffff"
     bordercolor="#666666"
     borderopacity="1.0"
     inkscape:pageshadow="2"
     inkscape:pageopacity="0.0"
     inkscape:pagecheckerboard="0"
     showgrid="false"
     inkscape:zoom="37"
     inkscape:cx="7.5540541"
     inkscape:cy="6.4594595"
     inkscape:window-width="1346"
     inkscape:window-height="670"
     inkscape:window-x="10"
     inkscape:window-y="52"
     inkscape:window-maximized="0"
     inkscape:current-layer="svg4" />
  <path
     d="m2.17819 10.265823v-.9907999h.13389.13389v.8836999.8837h.48201c.4463 0 .482.01.482.1071 0 .1009-.0357.1071-.6159.1071h-.61589zm1.55313.241c0-.7140999.005-.7497999.10711-.7497999.10201 0 .10711.036.10711.7497999 0 .7141-.005.7498-.10711.7498-.10201 0-.10711-.036-.10711-.7498zm.77785.6221c-.2744-.2744-.29805-.9124-.045-1.2131999.1408-.1673.40799-.2466.63705-.1892.16627.042.39742.2606.39742.3761999 0 .1319-.23394.102-.29525-.038-.0559-.1273999-.22361-.1764999-.42786-.1252999-.34021.085-.30196 1.0449999.0451 1.1320999.15582.039.33125-.043.41085-.1913.0678-.1266.26713-.1426.26713-.021 0 .046-.0704.1549-.15655.241-.13228.1322-.19908.1565-.43089.1565-.21769 0-.30071-.026-.40207-.1277zm1.41842-.024c-.28083-.2809-.28184-.8895-.002-1.2026999.13728-.1537.18423-.1717.44673-.1717.21758 0 .32435.028.41346.1071.14306.1275.26601.3989999.26601.5873999v.1356h-.54226-.54225l.0336.174c.0653.338.41882.4682.6906.2544.1667-.1311.33238-.1441.28567-.022-.0179.047-.0325.094-.0325.1058 0 .072-.35923.1844-.59057.1844-.23017 0-.29914-.025-.42653-.1519zm.85644-.8156c0-.081-.11188-.2835-.18208-.3303999-.0324-.022-.13123-.039-.2196-.039-.19039 0-.25739.039-.34009.1956999-.11035.2097-.0787.2312.34009.2312.2486 0 .40168-.022.40168-.057zm.58911.2177c0-.7140999.005-.7497999.10712-.7497999.0729 0 .10711.036.10711.1119 0 .1077.006.1067.16478-.027.2179-.1833.4887-.1862.66778-.01.12502.1251.13145.1631.13145.7765999 0 .6094-.006.6451-.10711.6451-.0999 0-.10711-.036-.10711-.5321 0-.6995-.0415-.8067999-.31171-.8067999-.33435 0-.3977.1152999-.42714.7770999-.0224.5041-.0353.5618-.12507.5618-.093 0-.1001-.053-.1001-.7498zm1.67975.6872c-.0629-.031-.14073-.1132-.17291-.1838-.051-.112-.045-.1285.0474-.1285.0583 0 .15417.048.21308.1071.0696.07.17852.1071.3111.1071.26123 0 .40088-.1003.37683-.2707-.0146-.1034-.0691-.1457-.25948-.2011-.41588-.1211-.58972-.219-.64444-.3629-.16714-.4395999.56396-.7245999.99302-.3870999.15587.1226.16723.1797999.045.2266999-.0539.021-.12792-.01-.18953-.075-.12092-.1296999-.4788-.1487999-.57682-.031-.12901.1553999-.0392.2581999.33033.3779999.45527.1476.52463.2069.52362.4478-.00095.2244-.0347.2886-.1965.3737-.14314.075-.64433.075-.80075 0zm1.54524-.021c-.27054-.1895-.36678-.7282-.20098-1.1251.14985-.3585999.74687-.4538999 1.03549-.1652999.12384.1237999.25074.5805999.18075.6505999-.0149.015-.25209.027-.52701.027-.49986 0-.49986 0-.49986.1363 0 .3247.46751.5208.69623.2921.0589-.059.14326-.1071.18745-.1071.12664 0 .0939.1423-.0608.2639-.17483.1375-.63203.153-.81129.027zm.77069-.9116c-.0179-.047-.0325-.1051-.0325-.13 0-.1094-.18336-.2136999-.37569-.2136999-.21896 0-.3741.1381999-.3741.3332999 0 .083.0527.095.4074.095.3495 0 .40278-.012.3749-.085zm-7.6375-.9595999c0-.098.0286-.1339.10711-.1339.0786 0 .10711.036.10711.1339 0 .098-.0286.1339-.10711.1339-.0786 0-.10711-.036-.10711-.1339zm-2.08869-1.0711v-.2946h-.32134-.32134v-.2945-.2946h.32134.32134v-.2946-.2945h-.32134-.32134v-2.0084-2.0083h2.54392 2.54392v2.0057 2.0056l-.30794.016-.30795.016-.0162.2811-.0162.2812h.32414.32413v.2946.2945h-.32133-.32134v.2946.2945h-.32134-.32134v-.2945-.2946h.32134.32134v-.2945-.2946h-.32414-.32413l.0162-.2812.0162-.2811.30795-.016.30795-.016v-.2624-.2624l-.30795-.016-.30795-.016-.0145-1.0845-.0145-1.0845h-.37379-.37378v2.2494 2.2493h-.48201-.48201v-2.2493-2.2494h-.40167-.40167v1.0979 1.0979h-.32134-.32133v.2678.2678h.32133.32134v.2945.2946h-.32134-.32133v.2946.2945h.32133.32134v.2946.2945h-.32134-.32133v-.2945zm5.19495-2.5975v-2.892h.64268.64267v2.892 2.892h-.64267-.64268zm4.07028 2.5975v-.2946h-.29456-.29456v-.2945-.2946h.29456.29456v-.2946-.2945h-.30795l-.30795.0001.0152-1.3658.0152-1.3657h-.72477-.72477v-.6427-.6426h2.06361 2.06362l-.0151.6293-.0151.6292-.70962.015-.70962.015v1.0964 1.0963h-.32427-.32427l.0163.2544.0163.2544.30794.016.30795.016v.2892.2893l-.30795.016-.30794.016v.2678.2677l.30794.016.30795.016v.2919.2918h-.32134-.32133v-.2945z"
     id="path2"
     style="fill:#ffffff" />
</svg>
