<?xml version="1.0" encoding="UTF-8" standalone="no"?>
<svg
   fill="none"
   height="24"
   viewBox="0 0 24 24"
   width="24"
   version="1.1"
   id="svg12"
   sodipodi:docname="users.svg"
   inkscape:version="1.1.2 (0a00cf5339, 2022-02-04)"
   xmlns:inkscape="http://www.inkscape.org/namespaces/inkscape"
   xmlns:sodipodi="http://sodipodi.sourceforge.net/DTD/sodipodi-0.dtd"
   xmlns="http://www.w3.org/2000/svg"
   xmlns:svg="http://www.w3.org/2000/svg">
  <defs
     id="defs16" />
  <sodipodi:namedview
     id="namedview14"
     pagecolor="#ffffff"
     bordercolor="#666666"
     borderopacity="1.0"
     inkscape:pageshadow="2"
     inkscape:pageopacity="0.0"
     inkscape:pagecheckerboard="0"
     showgrid="false"
     inkscape:zoom="19.916667"
     inkscape:cx="0.32635983"
     inkscape:cy="12"
     inkscape:window-width="1366"
     inkscape:window-height="726"
     inkscape:window-x="0"
     inkscape:window-y="42"
     inkscape:window-maximized="1"
     inkscape:current-layer="g10" />
  <g
     fill="#323232"
     id="g10">
    <path
       clip-rule="evenodd"
       d="m5 9.5c0-2.48528 2.01472-4.5 4.5-4.5 2.4853 0 4.5 2.01472 4.5 4.5 0 2.4853-2.0147 4.5-4.5 4.5-2.48528 0-4.5-2.0147-4.5-4.5z"
       fill-rule="evenodd"
       id="path2"
       style="fill:#ffffff" />
    <path
       d="m14.3675 12.0632c-.0455.0862-.0262.1937.0521.2517.5816.4305 1.3013.6851 2.0804.6851 1.933 0 3.5-1.567 3.5-3.5s-1.567-3.5-3.5-3.5c-.7791 0-1.4988.2546-2.0804.68513-.0783.058-.0976.16545-.0521.25166.4039.7654.6325 1.63761.6325 2.56321s-.2286 1.7978-.6325 2.5632z"
       id="path4"
       style="fill:#ffffff" />
    <path
       clip-rule="evenodd"
       d="m4.64115 15.6993c1.23236-.5349 2.8493-.6993 4.8588-.6993 2.01125 0 3.62935.1647 4.86215.7008 1.3429.5839 2.1591 1.5785 2.5869 2.9828.2005.6582-.2939 1.3164-.9752 1.3164h-12.94579c-.68212 0-1.17756-.6592-.97644-1.3186.42837-1.4045 1.24581-2.3988 2.58958-2.9821z"
       fill-rule="evenodd"
       id="path6"
       style="fill:#ffffff" />
    <path
       d="m14.8185 14.0364c-.414.0257-.4383.5819-.0579.7473 1.0424.4533 1.8273 1.1206 2.3902 1.9723.4619.6989 1.1792 1.244 2.0169 1.244h1.7806c.7072 0 1.2232-.7027.9744-1.3892-.0143-.0395-.0292-.0787-.0446-.1176-.3424-.8646-.9293-1.5011-1.7983-1.9068-.8159-.3809-1.8373-.5381-3.0406-.5856l-.0198-.0008h-.0197c-.7088 0-1.4491-.0091-2.1812.0364z"
       id="path8"
       style="fill:#ffffff" />
  </g>
</svg>
