<?xml version="1.0" encoding="UTF-8" standalone="no"?>
<svg
   fill="none"
   height="24"
   viewBox="0 0 24 24"
   width="24"
   version="1.1"
   id="svg4"
   sodipodi:docname="academic-cap (1).svg"
   inkscape:version="1.1.2 (0a00cf5339, 2022-02-04)"
   xmlns:inkscape="http://www.inkscape.org/namespaces/inkscape"
   xmlns:sodipodi="http://sodipodi.sourceforge.net/DTD/sodipodi-0.dtd"
   xmlns="http://www.w3.org/2000/svg"
   xmlns:svg="http://www.w3.org/2000/svg">
  <defs
     id="defs8" />
  <sodipodi:namedview
     id="namedview6"
     pagecolor="#ffffff"
     bordercolor="#666666"
     borderopacity="1.0"
     inkscape:pageshadow="2"
     inkscape:pageopacity="0.0"
     inkscape:pagecheckerboard="0"
     showgrid="false"
     inkscape:zoom="19.916667"
     inkscape:cx="0.32635983"
     inkscape:cy="12"
     inkscape:window-width="1366"
     inkscape:window-height="726"
     inkscape:window-x="0"
     inkscape:window-y="42"
     inkscape:window-maximized="1"
     inkscape:current-layer="svg4" />
  <path
     d="m11.5144 3.12584c.302-.16779.6692-.16779.9712 0l9 5c.3175.17637.5144.51099.5144.87416s-.1969.69779-.5144.87416l-9 5.00004c-.302.1677-.6692.1677-.9712 0l-2.5144-1.3969v1.1439l2.0287 1.1271c.6041.3356 1.3385.3356 1.9426 0l6.3786-3.5437c.1274-.0708.2854.0142.2965.1595l.285 3.7045c.0758.9852-.5755 1.865-1.5143 2.1057-.7598.195-1.8364.4897-2.5674.7625-.9096.3396-2.0043 1.0168-2.6914 1.4766-.6993.4678-1.6171.4678-2.3164 0-.4817-.3223-1.16375-.7515-1.8419-1.0963v.6829c0 .5523-.44772 1-1 1s-1-.4477-1-1v-1.4378c-.49495-.1458-1.00301-.2816-1.41704-.3878-.93872-.2408-1.59001-1.1206-1.51423-2.1058l.28496-3.7044c.01118-.1454.1691-.2303.29654-.1595l2.34977 1.3054v-1.0101c0-.0435.00283-.0867.00836-.1292l-4.494-2.49664c-.31747-.17637-.51436-.51099-.51436-.87416s.19689-.69779.51436-.87416z"
     fill="#323232"
     id="path2"
     style="fill:#ffffff" />
</svg>
