<?xml version="1.0" encoding="UTF-8" standalone="no"?>
<svg
   viewBox="0 0 24 24"
   fill="currentColor"
   class="size-6"
   version="1.1"
   id="svg6"
   sodipodi:docname="gear.svg"
   inkscape:version="1.1.2 (0a00cf5339, 2022-02-04)"
   xmlns:inkscape="http://www.inkscape.org/namespaces/inkscape"
   xmlns:sodipodi="http://sodipodi.sourceforge.net/DTD/sodipodi-0.dtd"
   xmlns="http://www.w3.org/2000/svg"
   xmlns:svg="http://www.w3.org/2000/svg">
  <defs
     id="defs10" />
  <sodipodi:namedview
     id="namedview8"
     pagecolor="#ffffff"
     bordercolor="#666666"
     borderopacity="1.0"
     inkscape:pageshadow="2"
     inkscape:pageopacity="0.0"
     inkscape:pagecheckerboard="0"
     showgrid="false"
     inkscape:zoom="19.916667"
     inkscape:cx="0.075313806"
     inkscape:cy="12"
     inkscape:window-width="1366"
     inkscape:window-height="726"
     inkscape:window-x="0"
     inkscape:window-y="42"
     inkscape:window-maximized="1"
     inkscape:current-layer="svg6" />
  <path
     d="M11.078 2.25c-.917 0-1.699.663-1.85 1.567L9.05 4.889c-.02.12-.115.26-.297.348a7.493 7.493 0 0 0-.986.57c-.166.115-.334.126-.45.083L6.3 5.508a1.875 1.875 0 0 0-2.282.819l-.922 1.597a1.875 1.875 0 0 0 .432 2.385l.84.692c.095.078.17.229.154.43a7.598 7.598 0 0 0 0 1.139c.015.2-.059.352-.153.43l-.841.692a1.875 1.875 0 0 0-.432 2.385l.922 1.597a1.875 1.875 0 0 0 2.282.818l1.019-.382c.115-.043.283-.031.45.082.312.214.641.405.985.57.182.088.277.228.297.35l.178 1.071c.151.904.933 1.567 1.85 1.567h1.844c.916 0 1.699-.663 1.85-1.567l.178-1.072c.02-.12.114-.26.297-.349.344-.165.673-.356.985-.57.167-.114.335-.125.45-.082l1.02.382a1.875 1.875 0 0 0 2.28-.819l.923-1.597a1.875 1.875 0 0 0-.432-2.385l-.84-.692c-.095-.078-.17-.229-.154-.43a7.614 7.614 0 0 0 0-1.139c-.016-.2.059-.352.153-.43l.84-.692c.708-.582.891-1.59.433-2.385l-.922-1.597a1.875 1.875 0 0 0-2.282-.818l-1.02.382c-.114.043-.282.031-.449-.083a7.49 7.49 0 0 0-.985-.57c-.183-.087-.277-.227-.297-.348l-.179-1.072a1.875 1.875 0 0 0-1.85-1.567h-1.843ZM12 15.75a3.75 3.75 0 1 0 0-7.5 3.75 3.75 0 0 0 0 7.5Z"
     fill="none"
     stroke="white"
     stroke-width="2"
     id="path2" />
  <path
     fill-rule="evenodd"
     d="M11.078 2.25c-.917 0-1.699.663-1.85 1.567L9.05 4.889c-.02.12-.115.26-.297.348a7.493 7.493 0 0 0-.986.57c-.166.115-.334.126-.45.083L6.3 5.508a1.875 1.875 0 0 0-2.282.819l-.922 1.597a1.875 1.875 0 0 0 .432 2.385l.84.692c.095.078.17.229.154.43a7.598 7.598 0 0 0 0 1.139c.015.2-.059.352-.153.43l-.841.692a1.875 1.875 0 0 0-.432 2.385l.922 1.597a1.875 1.875 0 0 0 2.282.818l1.019-.382c.115-.043.283-.031.45.082.312.214.641.405.985.57.182.088.277.228.297.35l.178 1.071c.151.904.933 1.567 1.85 1.567h1.844c.916 0 1.699-.663 1.85-1.567l.178-1.072c.02-.12.114-.26.297-.349.344-.165.673-.356.985-.57.167-.114.335-.125.45-.082l1.02.382a1.875 1.875 0 0 0 2.28-.819l.923-1.597a1.875 1.875 0 0 0-.432-2.385l-.84-.692c-.095-.078-.17-.229-.154-.43a7.614 7.614 0 0 0 0-1.139c-.016-.2.059-.352.153-.43l.84-.692c.708-.582.891-1.59.433-2.385l-.922-1.597a1.875 1.875 0 0 0-2.282-.818l-1.02.382c-.114.043-.282.031-.449-.083a7.49 7.49 0 0 0-.985-.57c-.183-.087-.277-.227-.297-.348l-.179-1.072a1.875 1.875 0 0 0-1.85-1.567h-1.843ZM12 15.75a3.75 3.75 0 1 0 0-7.5 3.75 3.75 0 0 0 0 7.5Z"
     clip-rule="evenodd"
     id="path4"
     style="fill:#4d4d4d;fill-opacity:1" />
</svg>
